# xmcd
#
# Track frame offsets:
#	150
#	15125
#	26624
#	38494
#	52383
#	67873
#	80830
#	90837
#	109331
#	119476
#	138830
#
# Disc length: 2041 seconds
#
# Revision: 1
# Processed by: cddbd v1.5.2PL0 Copyright (c) Steve Scherf et al.
# Submitted via: EasyCDDAExtractor 4.6.0.1
#
DISCID=8407f70b
DTITLE=BR5-49
DYEAR=1996
DGENRE=Country
TTITLE0=Even If It's Wrong
TTITLE1=Cherokee Boogie
TTITLE2=Honky Tonk Song
TTITLE3=Lifetime To Prove
TTITLE4=Little Ramona (gone Hillbilly Nuts)
TTITLE5=Crazy Arms
TTITLE6=I Ain't Never
TTITLE7=Chains Of This Town
TTITLE8=Are You Gettin' Tired Of Me
TTITLE9=Hickory Wind
TTITLE10=One Long Saturday Night
EXTD=ID3G:   2
EXTT0=
EXTT1=
EXTT2=
EXTT3=
EXTT4=
EXTT5=
EXTT6=
EXTT7=
EXTT8=
EXTT9=
EXTT10=
PLAYORDER=
